HIERARCHY
ROOT pelvis
{
  OFFSET 0 100 0
  CHANNELS 6 Xposition Yposition Zposition Zrotation Xrotation Yrotation
  JOINT pelvis_right_femur
  {
    OFFSET -10.78128 -3.44521 -0.5502486
    CHANNELS 3 Zrotation Xrotation Yrotation
    JOINT right_femur_tibia
    {
      OFFSET -0.8047443 -44.0398 -0.1307829
      CHANNELS 3 Zrotation Xrotation Yrotation
      JOINT right_tibia_foot
      {
        OFFSET 3.006224 -47.83518 -5
        CHANNELS 3 Zrotation Xrotation Yrotation
        End Site
        {
          OFFSET 0 -5 15
        }
      }
    }
  }
  JOINT pelvis_left_femur
  {
    OFFSET 10.78128 -3.44521 -0.5502486
    CHANNELS 3 Zrotation Xrotation Yrotation
    JOINT left_femur_tibia
    {
      OFFSET 0.8047443 -44.0398 -0.1307829
      CHANNELS 3 Zrotation Xrotation Yrotation
      JOINT left_tibia_foot
      {
        OFFSET -4.370144 -48.10324 -4.275266
        CHANNELS 3 Zrotation Xrotation Yrotation
        End Site
        {
          OFFSET 0 -5 15
        }
      }
    }
  }
  JOINT pelvis_spine1
  {
    OFFSET 0 6.468898 -3.129235
    CHANNELS 3 Zrotation Xrotation Yrotation
    JOINT spine1
    {
      OFFSET 0 23.15396 4.99043
      CHANNELS 3 Zrotation Xrotation Yrotation
      JOINT spine2
      {
        OFFSET 0 20.79997 -5.064912
        CHANNELS 3 Zrotation Xrotation Yrotation
        JOINT neck
        {
          OFFSET 0 14.38658 9.616178
          CHANNELS 3 Zrotation Xrotation Yrotation
          End Site
          {
            OFFSET 0 20 0
          }
        }
      }
      JOINT right_manubrium
      {
        OFFSET -5.722621 16.35077 3.967754
        CHANNELS 3 Zrotation Xrotation Yrotation
        JOINT right_clavicle
        {
          OFFSET -13.16364 1.694482 -4.693211
          CHANNELS 3 Zrotation Xrotation Yrotation
          JOINT right_humerus
          {
            OFFSET -28.5034 -0.3100689 -2.792744
            CHANNELS 3 Zrotation Xrotation Yrotation
            JOINT right_radius
            {
              OFFSET -25.15693 0.02248979 -1.271978
              CHANNELS 3 Zrotation Xrotation Yrotation
              End Site
              {
                OFFSET -15 0 0
              }
            }
          }
        }
      }
      JOINT left_manubrium
      {
        OFFSET 5.722621 16.35077 3.967754
        CHANNELS 3 Zrotation Xrotation Yrotation
        JOINT left_clavicle
        {
          OFFSET 13.16364 1.694482 -4.693211
          CHANNELS 3 Zrotation Xrotation Yrotation
          JOINT left_humerus
          {
            OFFSET 29.39168 -1.063119 -2.237045
            CHANNELS 3 Zrotation Xrotation Yrotation
            JOINT left_radius
            {
              OFFSET 24.59957 -0.9528479 0.9047498
              CHANNELS 3 Zrotation Xrotation Yrotation
              End Site
              {
                OFFSET 15 -0 -0
              }
            }
          }
        }
      }
    }
  }
}
MOTION
Frames: 17
Frame Time: 0.0416666666667
0 103.5113 0 0.9614486 -0.102932 -0.1651378 3.738583 -16.84778 10.40579 -0 38.89555 -0 -4.87413 -18.73906 -3.078527 -7.299617 9.184639 -23.14509 -0 6.495833 -0 13.86524 -12.62069 28.85 -3.972591 -3.972677 5.188227 2.773326 10.14178 -7.695069 1.333383 21.58429 6.69498 2.814173 -24.93197 9.776472 7.005773 -19.96379 11.98869 85.02233 38.55721 -17.67183 -0 0 16.4297 -6.190404 8.514387 4.058217 5.756668 -19.0572 -1.19842 -91.61858 21.34044 19.97391 0 0 -14.83009 15.25158 14.09651 -3.783124
0.348077 103.7895 1.680307 0.9107024 0.07089468 -0.2909062 3.856597 -17.86483 10.09902 -0 37.97869 -0 -4.866408 -17.91971 -2.883487 -7.268624 9.199167 -22.78913 -0 6.211078 -0 13.89043 -13.03317 28.58532 -3.923549 -3.833711 5.196621 2.762601 10.20998 -7.6981 1.341939 21.48357 6.726001 2.865538 -25.02592 9.783823 6.944078 -19.9734 11.99902 85.12907 38.48331 -17.78507 -0 0 16.30282 -6.440848 8.652463 4.143796 5.910944 -19.30964 -1.263767 -91.37714 21.00608 19.75078 0 0 -15.35256 15.61432 13.93487 -4.115447
0.7136476 103.8622 3.689145 0.7326131 0.3357467 -0.2687197 4.040928 -20.86386 8.659964 -0 35.16111 -0 -5.1769 -14.55515 -2.191358 -7.095951 9.380742 -21.44668 -0 5.413065 -0 13.48084 -14.4278 27.37819 -3.687537 -3.33287 5.051667 2.644199 10.4773 -7.661737 1.331877 21.30354 6.867433 3.086251 -25.13224 9.697974 6.575821 -19.9575 12.04015 85.66317 37.70902 -18.21952 -0 0 15.59151 -7.815687 9.056343 4.718932 6.383147 -20.25087 -1.687207 -90.55006 20.08128 18.89224 0 0 -17.11248 16.38483 13.66295 -4.776395
1.078087 103.7407 5.950398 0.6263178 0.9104311 -0.1529061 4.436971 -23.81359 7.843075 -0 31.43479 -0 -5.102539 -12.6962 -1.818219 -7.06798 9.952131 -20.58916 -0 5.026496 -0 13.06487 -16.0774 26.62712 -3.597852 -2.991586 5.065964 2.671158 10.40645 -7.682506 1.413238 21.12852 6.868216 3.176012 -25.31246 9.703376 6.269669 -19.81656 11.90514 86.07782 37.29402 -18.82044 -0 0 15.06177 -8.070218 9.14113 4.734259 6.815902 -20.86135 -1.780881 -90.13538 20.10347 18.31163 0 0 -18.90923 16.38132 13.55228 -4.607251
1.438743 103.4179 8.511796 0.5227421 1.514328 0.05372632 4.782191 -26.68126 6.885915 -0 27.31484 -0 -5.094583 -10.73577 -1.429758 -7.057919 10.64859 -19.65874 -0 4.932705 -0 12.43587 -17.74 25.69733 -3.500069 -2.696687 5.053506 2.706405 10.30445 -7.726388 1.467519 20.98121 6.884975 3.281059 -25.45863 9.666529 5.922165 -19.61604 11.74798 86.58473 36.84032 -19.56453 -0 0 14.36141 -8.40068 9.201613 4.788542 7.240508 -21.51701 -1.887089 -89.69229 20.26273 17.66292 0 0 -20.88326 16.15691 13.50028 -4.21257
1.791636 102.9189 11.399 0.387129 2.142371 0.3419359 5.115171 -29.36075 5.892997 -0 23.10236 -0 -5.181501 -8.767484 -1.064259 -7.042508 11.47031 -18.76075 -0 5.252916 -0 11.40019 -19.42237 24.53259 -3.367457 -2.434594 4.994179 2.754877 10.12773 -7.788417 1.499292 20.87594 6.918443 3.402538 -25.60521 9.595165 5.562062 -19.35396 11.56623 87.13906 36.34644 -20.42993 -0 0 13.55957 -8.691125 9.187144 4.844458 7.591753 -22.13019 -2.000596 -89.37675 20.86507 17.1504 0 0 -22.89169 15.39622 13.62934 -3.198613
2.132215 102.2727 14.66415 0.1855238 2.70743 0.7061844 5.394047 -31.75173 4.7513 -0 19.00508 -0 -5.468735 -6.630789 -0.6925979 -6.967235 12.37577 -17.79576 -0 6.070099 -0 9.857915 -20.97098 22.96575 -3.142882 -2.184972 4.834001 2.789995 9.91514 -7.857988 1.494169 20.8324 6.975968 3.53972 -25.70999 9.465824 5.151633 -19.0258 11.38037 87.76838 35.68413 -21.36762 -0 0 12.60321 -9.121499 9.127674 4.997698 7.845685 -22.72669 -2.186359 -89.11738 21.76558 16.7053 0 0 -24.84954 14.19218 13.90825 -1.677488
2.453116 101.5275 18.36955 -0.1151464 3.165584 1.135512 5.638147 -33.71579 3.489508 -0 15.25209 -0 -5.998284 -4.432464 -0.3395329 -6.784559 13.33508 -16.74743 -0 7.554988 -0 7.734259 -22.19679 20.90442 -2.780557 -1.945388 4.542406 2.807556 9.66187 -7.933659 1.449526 20.86297 7.044489 3.667476 -25.75494 9.274902 4.682554 -18.61565 11.19496 88.4592 34.81444 -22.31943 -0 0 11.50167 -9.685454 9.020587 5.255352 7.955438 -23.26084 -2.457852 -88.91288 22.92996 16.33218 0 0 -26.60272 12.56114 14.30186 0.3278724
2.743868 100.7572 22.58893 -0.5358518 3.454619 1.60701 5.878277 -35.01264 2.167425 -0 12.13011 -0 -6.790662 -2.382552 -0.04805288 -6.448102 14.28033 -15.58617 -0 9.980454 -0 5.07324 -22.77535 18.32427 -2.238522 -1.735929 4.100796 2.805251 9.380657 -8.019842 1.358165 20.9776 7.102449 3.745116 -25.70384 9.016804 4.152415 -18.10769 11.02155 89.19997 33.73235 -23.21163 -0 0 10.26621 -10.37483 8.88407 5.619138 7.867338 -23.68086 -2.82074 -88.71877 24.19398 15.9883 0 0 -27.95102 10.65637 14.71994 2.620392
2.991639 100.0799 27.38774 -1.077927 3.50006 2.076379 6.192084 -35.27214 0.9607255 -0 10.07459 -0 -7.815938 -0.8438931 0.09476593 -5.921232 15.06234 -14.32601 -0 13.77097 -0 2.089957 -22.28268 15.3689 -1.493181 -1.595256 3.526428 2.786968 9.100023 -8.122318 1.2163 21.17786 7.116778 3.720585 -25.52509 8.694024 3.592639 -17.50283 10.88184 89.9567 32.51205 -23.9492 -0 0 8.96545 -11.10876 8.751968 6.050185 7.511427 -23.90134 -3.255258 -88.51423 25.34455 15.67854 0 0 -28.60699 8.708943 15.06046 4.912264
3.183834 99.67221 32.78468 -1.699138 3.209698 2.469935 6.684652 -34.02792 0.156027 -0 9.624235 -0 -8.980936 -0.2377841 -0.03472252 -5.198105 15.38317 -13.03574 -0 19.48929 -0 -0.7703175 -20.31405 12.43078 -0.568918 -1.562758 2.905894 2.757373 8.889122 -8.236195 1.032468 21.44965 7.045769 3.550762 -25.20334 8.319631 3.080358 -16.84688 10.81454 90.66688 31.32307 -24.42189 -0 0 7.752008 -11.74522 8.686963 6.4645 6.825485 -23.82906 -3.713928 -88.33693 26.12723 15.50487 0 0 -28.23615 7.028981 15.23281 6.835092
3.312672 99.75931 38.69374 -2.286499 2.513728 2.690683 7.398687 -30.90823 0.04822418 -0 11.12402 -0 -10.13987 -0.8115747 -0.531118 -4.341949 14.74397 -11.84017 -0 27.62957 -0 -2.932677 -16.78263 10.10869 0.4137405 -1.631977 2.429169 2.716954 8.86521 -8.328068 0.8397683 21.75279 6.855666 3.247367 -24.77153 7.919085 2.744454 -16.25716 10.871 91.22758 30.45422 -24.53319 -0 0 6.867438 -12.11206 8.776174 6.739684 5.815176 -23.42475 -4.116821 -88.33531 26.34464 15.71847 0 0 -26.61481 5.910409 15.18452 8.073125
3.377994 100.5376 44.88183 -2.652671 1.434082 2.655089 8.167399 -25.96536 0.6811608 -0 14.13058 -0 -11.16311 -2.320643 -1.31848 -3.512769 12.52896 -10.85516 -0 38.04001 -0 -3.990223 -12.25581 8.956243 1.210261 -1.696949 2.354473 2.653177 9.151936 -8.32211 0.6934037 22.03391 6.553391 2.924736 -24.31261 7.516347 2.715577 -15.90315 11.08847 91.50346 30.25826 -24.23218 -0 0 6.539918 -12.13808 9.080826 6.789837 4.64252 -22.79995 -4.372163 -88.71387 25.96496 16.5923 0 0 -23.90315 5.502392 14.91867 8.511777
3.382251 102.0277 51.00882 -2.610957 0.1277094 2.350074 8.631329 -19.87993 1.667658 -0 17.0552 -0 -12.00484 -4.05504 -2.081365 -2.90356 8.350644 -10.0923 -0 49.15859 -0 -3.968173 -7.936009 9.178796 1.528651 -1.570407 2.844265 2.536731 9.753857 -8.116151 0.6403693 22.2791 6.203883 2.765255 -23.8846 7.115303 3.005134 -15.90616 11.44045 91.35552 30.94597 -23.48062 -0 0 6.810474 -11.99773 9.536359 6.689788 3.642955 -22.21743 -4.421836 -89.53022 25.15168 18.07995 0 0 -20.76219 5.735004 14.50584 8.264155
3.323768 103.9669 56.77354 -2.124686 -1.184633 1.846789 8.523651 -13.64268 2.388999 -0 17.95694 -0 -12.67984 -5.494974 -2.46946 -2.560252 2.469069 -9.439869 -0 58.05227 -0 -3.263204 -5.002018 10.53261 1.237088 -1.123824 3.783955 2.333654 10.45139 -7.63958 0.6857788 22.55215 5.883588 2.858595 -23.41933 6.709957 3.40784 -16.24374 11.80952 90.6713 32.29607 -22.14969 -0 0 7.51907 -12.05582 9.919868 6.702034 3.152322 -21.87906 -4.273418 -90.55652 24.16696 19.6573 0 0 -17.97415 6.362153 14.06798 7.545111
3.209182 105.8922 62.05634 -1.382898 -2.347383 1.239388 7.902946 -7.893187 2.460453 -0 16.11332 -0 -13.17689 -6.865907 -2.406805 -2.284781 -4.24872 -8.74756 -0 61.97127 -0 -2.346728 -3.823854 12.48578 0.5118448 -0.4135562 4.83525 2.031542 10.91074 -6.911115 0.7981449 22.92753 5.609059 3.087007 -22.77045 6.318505 3.598946 -16.806 12.04498 89.39266 33.64112 -20.03178 -0 0 8.553844 -12.57578 10.0007 7.090589 3.249947 -21.70676 -3.985696 -91.47439 23.24305 20.77138 0 0 -15.83877 7.060265 13.71644 6.598814
3.078055 107.3621 66.92957 -0.676318 -3.27326 0.5866431 7.047849 -2.692826 1.951365 -0 12.44609 -0 -13.43337 -8.741199 -2.072087 -1.794293 -10.89189 -7.918772 -0 59.99555 -0 -1.527673 -3.918428 14.49532 -0.2945976 0.3604677 5.699854 1.659146 10.93871 -6.040805 0.9309319 23.37583 5.353793 3.245516 -21.90605 5.984448 3.389485 -17.53401 12.07105 87.58056 34.34895 -17.07559 -0 0 10.00102 -13.53843 9.739299 7.928797 3.722324 -21.44373 -3.630019 -92.1725 22.4914 21.39306 0 0 -14.10344 7.551503 13.49125 5.698699
